<?xml version="1.0" standalone="no"?>
<!DOCTYPE svg PUBLIC "-//W3C//DTD SVG 20010904//EN"
 "http://www.w3.org/TR/2001/REC-SVG-20010904/DTD/svg10.dtd">
<svg version="1.0" xmlns="http://www.w3.org/2000/svg"
 width="640.000000pt" height="640.000000pt" viewBox="0 0 640.000000 640.000000"
 preserveAspectRatio="xMidYMid meet">

<g transform="translate(0.000000,640.000000) scale(0.100000,-0.100000)"
fill="#000000" stroke="none">
<path d="M0 3200 l0 -3200 3200 0 3200 0 0 3200 0 3200 -3200 0 -3200 0 0
-3200z m3940 2978 l0 -33 26 30 c26 30 29 20 9 -29 -7 -16 -6 -17 14 -6 29 15
42 3 17 -15 -18 -13 -17 -14 8 -21 30 -7 25 -24 -7 -24 -20 -1 -21 -2 -4 -14
25 -19 21 -27 -9 -20 -24 6 -25 5 -15 -14 20 -37 11 -48 -14 -17 l-25 30 0
-32 c0 -18 -4 -33 -10 -33 -5 0 -13 15 -18 33 l-9 32 -11 -27 c-16 -39 -25
-35 -18 8 7 34 6 35 -14 24 -12 -6 -24 -9 -27 -7 -2 3 5 10 16 17 29 15 26 30
-6 31 l-28 2 28 4 c33 5 33 9 5 34 l-23 19 27 -6 c27 -6 28 -5 22 25 -8 38 1
40 19 5 l14 -27 6 32 c8 41 27 40 27 -1z m1840 -265 c4 -32 8 -52 9 -46 1 16
70 93 82 93 11 0 -11 -61 -31 -85 -9 -11 -20 -26 -24 -32 -11 -20 18 -16 43 6
26 23 79 46 87 38 10 -10 -25 -51 -64 -74 l-37 -23 42 0 c23 0 54 -5 70 -11
26 -10 27 -12 8 -19 -11 -5 -42 -9 -70 -10 -43 -1 -47 -3 -31 -13 41 -25 91
-76 83 -84 -5 -4 -36 7 -69 25 -33 18 -62 31 -64 29 -3 -2 4 -15 14 -28 26
-32 55 -90 49 -96 -10 -9 -48 23 -70 57 l-22 35 -5 -50 c-3 -27 -9 -56 -14
-64 -14 -22 -26 7 -26 64 -1 43 -3 47 -13 30 -16 -27 -78 -87 -84 -81 -9 8 19
81 38 99 28 27 23 29 -18 9 -21 -11 -51 -22 -66 -26 -25 -6 -27 -5 -18 11 19
32 36 49 61 64 24 13 24 13 -28 20 -85 11 -86 26 -3 36 l51 6 -31 23 c-17 12
-38 32 -46 43 -13 19 -12 21 4 21 10 0 36 -9 58 -20 43 -22 56 -19 33 7 -17
21 -41 84 -33 91 5 6 64 -53 82 -84 11 -17 12 -15 12 17 1 20 4 51 7 68 9 46
25 25 34 -46z m-2540 -2 c-8 -5 -79 -11 -158 -15 -144 -6 -317 -21 -382 -32
-63 -10 -25 6 51 22 96 21 522 42 489 25z m197 -7 c-3 -3 -12 -4 -19 -1 -8 3
-5 6 6 6 11 1 17 -2 13 -5z m245 -24 c78 -11 146 -24 152 -29 6 -4 43 -16 81
-26 39 -10 88 -27 110 -37 22 -10 31 -16 20 -13 -69 21 -232 56 -415 90 -47 9
-103 20 -125 24 l-40 9 37 1 c21 0 102 -8 180 -19z m-2913 -25 c11 18 12 17 7
-7 -5 -23 -3 -26 11 -21 11 5 14 3 8 -6 -4 -8 -2 -17 6 -22 12 -7 12 -9 0 -9
-8 0 -11 -6 -7 -16 4 -11 2 -15 -8 -11 -10 4 -12 0 -8 -16 5 -20 4 -20 -11 -8
-13 10 -17 10 -17 1 0 -10 -3 -10 -15 0 -8 6 -19 9 -25 5 -5 -3 -10 -1 -10 4
0 6 -7 11 -16 11 -14 0 -14 3 -4 15 10 12 9 15 -6 16 -18 0 -18 1 0 8 14 5 16
10 8 15 -17 10 -15 26 3 20 10 -4 15 0 15 11 0 14 3 15 15 5 12 -10 16 -9 22
6 6 17 7 17 13 -1 7 -19 7 -19 19 0z m702 -5 c1 -11 3 -24 4 -30 1 -5 3 -12 4
-15 0 -3 14 9 31 27 29 32 29 33 30 9 0 -14 -8 -33 -17 -44 -20 -22 -21 -22
47 -1 29 9 25 -14 -5 -28 -31 -14 -23 -28 16 -28 16 0 29 -4 29 -10 0 -9 -23
-14 -57 -13 -21 1 -15 -16 15 -43 l27 -25 -25 4 c-14 2 -33 8 -43 12 -17 7
-17 6 0 -23 23 -41 8 -54 -22 -19 -30 34 -35 34 -35 -4 0 -17 -4 -28 -10 -24
-5 3 -10 21 -10 38 l-1 32 -20 -27 c-27 -37 -43 -36 -24 2 21 40 19 43 -15 25
-33 -17 -50 -19 -50 -6 0 5 13 14 29 21 50 20 47 40 -4 40 -25 0 -45 5 -45 10
0 6 18 10 40 10 47 0 52 14 10 29 -16 5 -30 14 -30 19 0 11 48 3 56 -9 14 -24
23 -5 9 21 -27 52 -19 68 15 30 l29 -35 1 38 c0 38 19 53 21 17z m1175 2 c-3
-5 -58 -24 -122 -42 -76 -22 -111 -36 -99 -40 13 -5 0 -13 -46 -29 -35 -13
-89 -33 -119 -46 -30 -12 -86 -33 -125 -45 -38 -13 -74 -26 -80 -30 -5 -4 -41
-17 -80 -30 -95 -31 -108 -38 -102 -60 5 -21 -35 -44 -63 -35 -10 3 -28 -3
-41 -14 -13 -11 -19 -20 -12 -21 6 0 15 5 18 10 3 6 11 10 18 10 6 0 1 -7 -11
-16 -12 -8 -27 -12 -32 -9 -14 9 -92 -30 -120 -60 -12 -13 -52 -44 -89 -69
-36 -24 -88 -69 -116 -100 -27 -31 -55 -56 -63 -56 -19 0 -206 -193 -247 -255
-23 -34 -33 -59 -29 -70 5 -11 1 -21 -10 -27 -9 -5 -21 -21 -27 -34 -6 -16
-14 -23 -21 -18 -7 4 -10 4 -6 -1 4 -4 -15 -41 -43 -81 -27 -41 -53 -82 -56
-91 -4 -9 -20 -29 -37 -46 -17 -16 -25 -26 -18 -22 20 10 14 -4 -12 -28 -22
-20 -67 -120 -103 -227 -26 -79 -57 -112 -65 -72 -3 11 -9 2 -16 -23 -30 -100
-85 -293 -94 -325 -5 -19 -13 -44 -18 -55 -6 -11 -17 -38 -25 -60 l-15 -40 5
40 c11 81 156 523 196 595 4 8 31 60 59 115 77 153 216 373 255 405 10 8 36
40 59 70 71 96 403 420 431 420 6 0 33 20 60 45 27 25 71 58 99 74 28 15 71
44 96 62 44 33 112 68 310 163 52 25 160 66 240 91 80 25 170 53 200 64 58 19
125 27 116 13z m222 1 c-10 -2 -26 -2 -35 0 -10 3 -2 5 17 5 19 0 27 -2 18 -5z
m705 0 c-7 -2 -21 -2 -30 0 -10 3 -4 5 12 5 17 0 24 -2 18 -5z m-366 -78 c-32
-30 -66 -55 -75 -55 -10 0 -25 -9 -35 -20 -24 -28 -31 -21 -47 46 -19 77 -8
84 119 84 l96 -1 -58 -54z m222 39 c4 -4 -3 -6 -73 -23 -57 -14 -68 -9 -37 18
17 15 31 18 64 14 23 -3 44 -7 46 -9z m786 -85 c33 -11 67 -27 75 -34 8 -7 47
-25 85 -40 68 -26 155 -71 155 -80 0 -10 -287 111 -311 132 -8 7 -20 13 -25
13 -11 0 -53 29 -44 30 3 0 33 -9 65 -21z m1017 -121 c22 -34 50 -110 38 -103
-6 3 -17 22 -24 40 -12 27 -22 35 -50 41 -33 6 -45 21 -29 37 14 15 51 6 65
-15z m-3221 -114 c10 -16 32 -65 50 -109 18 -44 36 -85 40 -90 4 -6 17 -37 30
-70 30 -84 49 -102 117 -110 31 -3 73 -10 92 -15 19 -5 47 -12 63 -15 31 -6
36 -32 13 -68 -8 -12 -17 -41 -21 -64 -4 -24 -10 -45 -15 -48 -4 -3 -18 -49
-30 -102 -12 -54 -26 -111 -31 -127 -5 -16 -9 -74 -9 -130 0 -131 26 -227 110
-396 18 -36 43 -76 57 -89 34 -32 83 -111 83 -132 0 -11 -11 -19 -33 -23 -75
-14 -147 -107 -162 -209 -5 -32 -13 -48 -28 -55 -52 -24 -96 -42 -104 -42 -14
0 -104 -48 -137 -73 -17 -13 -51 -35 -74 -48 -24 -13 -57 -31 -74 -41 -16 -9
-46 -31 -66 -50 -20 -18 -50 -42 -67 -52 -27 -18 -214 -201 -276 -272 -40 -45
-96 -128 -104 -154 -4 -12 -19 -42 -33 -66 -25 -42 -28 -43 -91 -50 -35 -4
-184 -4 -330 -1 -247 5 -372 17 -396 39 -14 12 -25 111 -31 278 -6 160 18 420
56 612 25 124 85 330 111 378 10 19 35 78 55 130 42 110 81 188 128 263 18 28
48 80 66 114 18 34 50 82 71 105 21 24 39 47 39 51 0 19 229 279 311 354 72
66 279 233 288 233 5 0 31 18 57 40 51 42 232 141 249 136 5 -1 17 -16 26 -32z
m2704 -31 c39 -23 81 -53 95 -68 14 -15 39 -34 55 -42 39 -21 145 -113 145
-126 0 -6 -9 -1 -20 10 -30 33 -81 70 -141 102 -30 16 -70 43 -88 60 -18 17
-38 31 -45 31 -6 0 -36 24 -66 51 -30 28 -44 45 -30 37 14 -8 57 -33 95 -55z
m499 45 c9 -12 14 -24 11 -26 -7 -7 -55 27 -55 38 0 18 29 10 44 -12z m-52
-46 c-30 -4 -55 5 -47 17 3 6 18 5 38 -2 29 -11 30 -12 9 -15z m252 4 c42 -18
113 -80 132 -117 17 -33 19 -85 3 -94 -11 -8 -14 -4 -81 89 -32 44 -57 65 -97
85 -30 14 -56 32 -59 39 -5 17 59 16 102 -2z m-251 -43 c-7 -2 -19 -2 -25 0
-7 3 -2 5 12 5 14 0 19 -2 13 -5z m131 -67 c8 -19 26 -42 40 -51 26 -17 34
-35 16 -35 -5 0 -25 14 -45 31 -25 22 -35 39 -35 60 0 38 7 37 24 -5z m-1853
-75 c83 -9 125 -25 206 -76 18 -11 34 -27 37 -35 3 -8 17 -30 30 -48 43 -58
46 -183 6 -262 -23 -45 -100 -117 -146 -136 -35 -15 -38 -18 -48 -66 -6 -26
-10 -28 -56 -28 -37 0 -55 5 -71 21 -19 19 -21 19 -33 3 -10 -14 -21 -15 -60
-10 -42 7 -47 11 -53 37 -7 34 -18 38 -26 8 -5 -18 -11 -20 -34 -14 -48 12
-56 24 -51 82 4 50 2 56 -29 89 -18 20 -33 40 -33 45 0 12 17 12 25 -1 3 -5
26 -10 51 -10 50 0 88 28 100 74 5 20 0 31 -24 51 -53 45 -131 95 -147 95 -19
0 -20 39 -1 66 8 11 40 40 71 64 44 34 67 44 113 50 82 11 79 11 173 1z m2253
-27 c15 -6 23 -54 9 -54 -4 0 -16 8 -27 19 -12 10 -34 23 -51 29 l-30 10 42 1
c23 1 48 -2 57 -5z m-499 -200 c49 -54 102 -114 116 -133 15 -20 44 -54 65
-76 22 -23 57 -71 78 -108 22 -37 48 -76 58 -87 10 -11 51 -82 89 -158 39 -75
75 -142 79 -148 14 -16 94 -221 119 -304 13 -41 31 -100 42 -130 67 -196 105
-518 95 -812 -10 -306 -38 -502 -96 -678 -15 -47 -47 -143 -69 -215 -23 -71
-52 -149 -64 -173 -123 -241 -164 -315 -189 -344 -15 -18 -28 -37 -28 -42 0
-11 -127 -193 -138 -198 -5 -1 -35 -37 -68 -78 -114 -142 -394 -409 -394 -374
0 7 87 98 251 263 47 47 114 120 149 161 34 41 70 82 79 90 26 23 86 102 104
135 8 17 24 39 34 50 27 29 202 384 209 425 4 19 10 42 15 51 11 22 46 154 54
209 9 56 51 205 70 245 29 65 44 147 51 295 8 165 8 186 0 295 -2 39 -9 160
-14 270 -8 147 -16 219 -30 270 -11 39 -39 135 -61 215 -29 102 -60 183 -105
275 -36 72 -82 168 -104 215 -74 161 -219 365 -362 510 -31 31 -87 96 -125
145 -57 73 -63 85 -35 63 19 -15 75 -71 125 -124z m465 120 c12 -12 12 -14 -2
-14 -24 0 -68 21 -68 33 0 13 52 -1 70 -19z m-4797 -102 c36 -34 21 -46 -35
-26 -36 12 -58 13 -97 6 -39 -7 -51 -6 -51 3 0 19 22 34 66 44 51 11 83 4 117
-27z m112 28 c3 -5 -1 -10 -9 -10 -8 0 -22 -7 -30 -16 -21 -21 -21 -6 1 18 18
20 29 23 38 8z m-364 -31 l24 -21 -23 7 c-14 4 -29 2 -38 -6 -19 -15 -40 2
-31 25 9 22 40 20 68 -5z m369 -18 c0 -10 -24 -21 -43 -21 -7 0 -3 7 7 15 22
17 36 19 36 6z m-360 -31 c0 -5 -7 -10 -15 -10 -8 0 -15 5 -15 10 0 6 7 10 15
10 8 0 15 -4 15 -10z m4556 -69 l51 -60 -13 -50 c-7 -27 -23 -72 -35 -98 -19
-42 -22 -66 -23 -189 -1 -87 -5 -146 -12 -155 -6 -8 -14 -27 -18 -42 -8 -32
-54 -110 -68 -116 -5 -2 -23 -18 -40 -37 -17 -19 -37 -34 -43 -34 -7 0 -29
-11 -49 -25 -66 -45 -107 -28 -155 63 -17 32 -22 121 -10 192 15 93 77 216
120 237 44 22 105 96 128 158 12 33 28 71 36 85 7 14 16 41 20 60 19 88 42 91
111 11z m-4424 37 c10 0 20 -3 23 -9 7 -10 -44 -12 -69 -3 -25 10 -19 26 7 18
12 -4 30 -7 39 -6z m-147 -8 c-3 -5 -11 -10 -16 -10 -6 0 -7 5 -4 10 3 6 11
10 16 10 6 0 7 -4 4 -10z m4445 -4 c0 -8 -4 -18 -10 -21 -5 -3 -10 -15 -10
-27 0 -11 -6 -34 -14 -51 -8 -18 -24 -60 -37 -95 -12 -34 -26 -65 -31 -68 -14
-9 -22 4 -11 18 6 7 13 27 17 43 4 17 9 39 11 50 3 11 -8 -8 -25 -43 -24 -52
-34 -63 -59 -68 -30 -6 -121 -88 -121 -109 0 -6 -10 -21 -23 -35 -43 -47 -59
-111 -55 -215 2 -54 8 -99 15 -106 9 -9 9 -2 2 27 -33 143 49 341 171 412 38
23 37 2 -2 -31 -43 -37 -96 -121 -118 -187 -9 -28 -15 -84 -15 -146 0 -77 -3
-100 -12 -97 -24 9 -13 -19 23 -60 50 -59 68 -67 144 -60 54 5 70 11 93 35 15
15 31 28 36 28 16 0 98 86 106 111 4 13 18 48 31 77 35 74 46 146 36 222 -9
63 -6 95 9 115 4 6 19 43 32 84 l25 73 33 -46 c19 -26 52 -69 74 -96 22 -26
49 -66 60 -87 23 -43 85 -146 94 -153 10 -8 141 -294 141 -308 0 -4 9 -24 20
-44 58 -109 157 -535 175 -755 l7 -83 -28 -11 c-16 -6 -72 -22 -124 -35 -52
-14 -99 -29 -105 -34 -6 -5 -31 -12 -55 -15 -25 -4 -60 -11 -78 -17 -66 -20
-217 -47 -224 -40 -8 9 -38 222 -38 277 0 50 -23 128 -39 133 -6 2 -26 -2 -44
-8 -155 -58 -201 -75 -347 -122 -65 -21 -90 -34 -90 -48 0 -4 31 -19 68 -34
38 -14 77 -33 88 -40 17 -13 17 -16 -11 -57 -32 -48 -206 -226 -245 -252 -14
-8 -70 -25 -125 -36 -88 -19 -101 -20 -110 -6 -8 12 -13 10 -31 -12 -23 -29
-44 -24 -44 11 0 12 -14 38 -31 57 -36 40 -61 96 -54 119 3 10 -12 32 -45 63
-27 26 -50 51 -50 56 0 5 15 18 33 30 62 40 -16 16 -158 -48 -22 -10 -55 -22
-72 -26 -18 -3 -33 -10 -33 -15 0 -13 23 -25 42 -22 9 2 22 -6 28 -17 12 -24
32 -29 24 -6 -10 26 15 16 31 -12 15 -28 15 -28 9 18 -5 41 -3 47 20 62 14 9
32 17 40 17 21 0 100 -96 127 -155 13 -27 25 -52 28 -55 29 -26 40 -90 19
-108 -18 -14 -123 -36 -141 -29 -8 3 -18 21 -22 39 -11 48 -43 146 -54 166
-20 34 -12 -18 14 -90 29 -80 32 -118 10 -118 -10 0 -15 10 -15 28 0 16 -6 37
-14 47 -12 16 -13 13 -7 -26 12 -81 6 -86 -137 -109 -53 -9 -77 -9 -85 -1 -15
15 6 166 31 223 33 74 35 83 17 68 -9 -7 -31 -47 -50 -88 -27 -58 -35 -88 -35
-133 0 -58 -15 -89 -45 -89 -7 0 -32 16 -56 36 -23 19 -56 42 -73 51 -17 9
-35 22 -39 29 -8 15 -99 64 -117 64 -5 0 -37 13 -70 29 -33 16 -75 33 -93 37
-17 3 -41 12 -52 19 -31 20 -181 61 -275 76 -56 9 -148 13 -266 11 -155 -3
-183 -1 -194 13 -15 18 -8 181 10 199 5 5 10 18 10 27 0 30 95 124 140 139 45
15 70 38 29 27 -13 -4 -31 -7 -40 -7 -9 0 -29 -11 -45 -25 -16 -14 -39 -25
-51 -25 -25 0 -73 20 -73 30 0 3 -10 17 -22 30 -50 53 -54 207 -7 261 10 12
19 25 19 29 0 15 89 49 152 60 56 9 74 8 110 -6 24 -10 50 -22 58 -29 22 -17
40 -27 40 -21 0 12 -92 67 -122 73 -65 12 -64 10 -134 173 -16 38 -19 69 -19
210 l0 165 35 65 c37 68 126 161 215 225 58 41 69 42 93 14 9 -11 51 -48 94
-81 42 -32 79 -65 82 -73 3 -8 36 -36 73 -64 38 -27 88 -72 111 -100 28 -33
51 -51 65 -51 25 0 117 45 133 66 6 8 16 14 22 14 21 0 264 109 309 139 26 17
51 31 56 31 5 0 43 17 85 37 99 47 165 50 232 10 25 -15 65 -37 90 -49 25 -12
48 -24 51 -25 11 -6 61 88 55 103 -7 18 31 52 87 79 36 17 42 25 42 50 0 29 1
30 53 33 46 3 54 6 62 28 5 13 14 24 20 24 5 0 10 9 10 20 0 25 16 25 80 0 46
-18 54 -19 107 -6 105 26 158 29 177 11 18 -19 21 -57 6 -86 -7 -13 -7 -19 -1
-19 6 0 14 12 17 28 19 75 64 145 64 98z m668 -96 c2 -6 9 -7 15 -3 7 4 6 -1
-2 -10 -12 -15 -11 -17 3 -17 16 0 16 -1 2 -16 -9 -8 -16 -19 -16 -23 0 -4
-15 -8 -33 -9 -27 -2 -36 2 -45 23 -8 18 -8 25 -1 25 7 0 6 6 -2 17 -10 11
-10 14 -1 9 7 -4 12 -2 12 7 0 17 63 14 68 -3z m-5335 -652 c18 16 30 3 14
-16 -10 -13 -8 -14 11 -8 23 8 32 -8 10 -17 -8 -3 -6 -6 5 -6 22 -1 23 -21 0
-21 -13 0 -14 -3 -5 -12 18 -18 14 -30 -8 -23 -11 4 -20 2 -20 -4 0 -6 5 -11
11 -11 5 0 7 -5 4 -11 -5 -7 -12 -6 -23 4 -10 8 -25 13 -35 12 -9 -2 -15 1
-11 6 3 5 -2 9 -11 9 -11 0 -15 5 -11 15 3 10 -1 15 -12 16 -15 1 -15 2 1 6
12 3 16 10 12 21 -3 9 -3 13 1 10 8 -9 34 16 34 34 0 10 2 10 9 -1 7 -12 13
-12 24 -3z m5670 -41 c4 3 7 -1 7 -11 0 -11 4 -14 12 -10 8 5 9 2 4 -11 -4
-11 -2 -22 6 -27 11 -6 10 -8 0 -8 -7 0 -11 -3 -9 -7 3 -5 -1 -14 -9 -21 -8
-7 -14 -9 -14 -5 0 4 -5 1 -11 -7 -8 -12 -12 -12 -16 -2 -4 10 -8 10 -19 1
-11 -9 -14 -8 -14 5 0 9 -3 16 -8 16 -4 0 -7 16 -8 35 0 19 3 32 8 29 4 -3 8
2 8 10 0 19 16 21 23 4 3 -8 6 -5 6 6 1 14 4 16 14 7 8 -6 17 -8 20 -4z
m-5497 -578 c-9 -29 -16 -65 -16 -80 0 -28 -19 -52 -21 -27 0 7 -5 0 -10 -17
-11 -33 -14 -254 -5 -295 3 -14 6 -92 7 -175 2 -214 21 -363 58 -451 17 -39
39 -109 50 -155 21 -87 56 -187 96 -274 46 -98 75 -168 75 -180 0 -7 11 -29
25 -49 31 -45 31 -46 1 -46 -13 0 -36 -10 -52 -22 l-29 -23 22 35 22 36 -45
89 c-60 119 -106 238 -139 360 -15 55 -31 109 -36 120 -14 33 -46 174 -58 255
-32 226 -40 570 -16 775 18 150 38 243 29 135 -5 -72 9 -66 21 10 4 25 12 54
19 65 10 19 11 19 14 -7 2 -15 -4 -50 -12 -79z m1790 -18 c-3 -5 -16 -11 -29
-15 -27 -6 -83 -38 -172 -96 -33 -22 -67 -43 -75 -47 -19 -8 -101 -63 -116
-78 -40 -38 -76 -66 -101 -79 -27 -14 -46 -32 -110 -101 -15 -16 -47 -45 -69
-62 -23 -18 -59 -58 -80 -90 -21 -32 -49 -66 -61 -76 -12 -9 -25 -28 -29 -40
-11 -37 -66 -99 -77 -88 -14 14 44 124 100 188 96 109 280 291 324 319 24 16
52 39 62 51 9 12 37 31 61 43 25 11 62 33 83 49 93 67 312 160 289 122z m44
-40 c0 -4 11 -24 24 -44 29 -42 29 -40 -65 -89 -36 -19 -96 -58 -133 -86 -37
-29 -71 -52 -76 -52 -5 0 -33 -24 -63 -52 -30 -29 -81 -78 -113 -108 -33 -30
-73 -76 -91 -102 -18 -26 -47 -54 -68 -64 -20 -9 -49 -32 -63 -51 -30 -37 -84
-58 -182 -69 -63 -7 -74 1 -45 30 8 8 15 18 15 23 0 7 20 34 103 137 18 22 43
49 56 60 14 12 56 52 95 90 39 37 107 95 151 128 44 33 87 65 96 71 25 19 51
35 99 62 25 14 68 39 95 55 99 60 165 85 165 61z m113 -108 c4 -3 0 -15 -10
-25 -24 -27 -50 -114 -58 -196 -8 -82 -12 -86 -95 -97 -116 -14 -257 -47 -300
-70 -67 -36 -120 -55 -120 -45 0 11 42 53 177 180 123 115 184 159 323 231 57
30 72 34 83 22z m3353 -340 c-10 -182 -15 -212 -38 -224 -10 -6 -58 -17 -106
-25 -139 -23 -183 -32 -242 -48 -30 -9 -73 -16 -95 -16 -22 0 -64 -9 -93 -20
-29 -11 -61 -20 -72 -20 -11 0 -28 -4 -38 -9 -19 -10 -41 -16 -227 -61 -71
-17 -173 -42 -225 -56 -52 -14 -107 -28 -122 -31 -16 -3 -28 -10 -28 -15 0 -6
-9 -8 -20 -5 -11 3 -20 1 -20 -3 0 -10 -49 -22 -105 -25 -22 -1 -56 -9 -75
-18 -39 -17 -238 -57 -287 -57 -17 0 -35 -5 -39 -11 -3 -6 -19 -9 -35 -5 -16
3 -29 1 -29 -4 0 -5 -18 -13 -40 -16 -22 -4 -40 -10 -40 -15 0 -4 -25 -13 -55
-20 -51 -11 -56 -14 -53 -38 4 -33 33 -47 132 -62 57 -9 86 -19 108 -37 24
-21 31 -23 39 -11 7 11 12 12 29 2 11 -7 27 -13 35 -13 19 0 19 0 -10 -124
-24 -103 -41 -146 -57 -146 -13 0 -9 21 7 36 8 9 14 30 14 47 -1 21 -3 25 -6
12 -9 -36 -34 -64 -63 -70 -30 -7 -122 -85 -99 -85 8 0 27 14 43 30 28 29 56
39 56 21 0 -4 -25 -25 -56 -45 -64 -43 -90 -90 -102 -183 -5 -45 -11 -59 -26
-61 -17 -4 -18 1 -14 46 3 27 15 69 27 92 12 23 20 44 18 46 -11 11 -37 -39
-57 -108 -13 -43 -26 -78 -30 -78 -4 0 -12 11 -18 25 -30 66 -40 -1 -22 -144
6 -41 9 -76 7 -77 -1 -1 -23 -5 -48 -9 l-45 -7 -11 59 c-6 32 -9 61 -7 65 2 3
22 9 44 13 33 6 40 11 40 30 0 23 -1 24 -35 9 -19 -7 -43 -14 -54 -14 -11 0
-26 -6 -33 -12 -7 -7 -30 -14 -51 -15 -35 -2 -39 0 -54 35 -25 56 -28 18 -8
-100 18 -111 16 -119 -37 -132 -23 -5 -28 -2 -36 27 -26 84 -26 85 18 98 40
12 51 37 14 31 -59 -11 -67 -7 -88 32 -19 36 -46 59 -46 39 0 -4 18 -64 39
-131 22 -68 37 -121 34 -118 -3 3 -17 -1 -32 -8 -14 -8 -41 -17 -58 -21 l-33
-7 0 56 c0 42 4 56 15 56 43 0 81 40 59 63 -11 11 -61 -14 -71 -36 -8 -17 -11
-5 -18 58 -21 215 -18 200 -43 203 -30 5 -25 36 7 40 20 3 22 8 17 34 -3 16
-15 43 -27 59 l-20 29 25 10 c30 11 29 10 16 44 -7 20 -19 27 -51 32 -39 7
-42 10 -78 83 -82 165 -100 177 -121 84 -7 -32 -22 -79 -32 -104 l-19 -45 -62
8 c-34 5 -84 13 -112 19 -216 46 -254 49 -262 19 -3 -11 -9 -20 -14 -20 -12 0
-11 -37 1 -45 6 -3 10 -24 10 -46 0 -36 26 -79 47 -79 5 0 9 -62 11 -138 4
-151 7 -172 27 -172 24 0 35 -35 33 -102 -2 -74 17 -130 68 -199 19 -26 41
-64 50 -85 15 -36 15 -39 -2 -51 -31 -23 -47 -11 -84 59 -45 86 -68 111 -96
104 -13 -4 -27 0 -34 10 -11 12 -10 17 8 30 31 21 28 51 -8 69 -16 8 -60 45
-96 81 -36 36 -71 63 -78 61 -14 -4 -24 -95 -22 -202 1 -77 2 -80 24 -77 16 2
25 -4 32 -24 8 -19 8 -30 0 -38 -19 -19 -10 -61 35 -150 l45 -89 -16 -43 c-9
-24 -14 -57 -12 -74 6 -42 -6 -44 -231 -38 -181 5 -188 6 -236 33 -28 15 -54
33 -58 41 -4 8 -13 14 -19 14 -15 0 -190 109 -209 131 -21 23 -107 89 -117 89
-8 1 -222 209 -301 294 -29 32 -59 69 -66 82 -13 26 -9 74 7 74 5 0 8 6 7 13
-1 6 3 25 9 40 7 16 12 34 12 41 0 7 9 21 20 31 11 10 20 25 20 34 0 9 9 27
20 41 11 14 20 37 20 51 0 14 9 35 20 47 11 12 20 28 20 37 0 9 4 14 9 11 5
-3 11 11 15 32 3 21 13 54 23 73 18 36 65 192 89 299 21 93 24 102 38 97 9 -4
11 3 8 20 -2 13 0 34 5 46 6 12 18 40 28 62 15 35 18 38 26 20 6 -16 8 -12 8
18 1 20 6 37 11 37 6 0 10 7 10 15 0 8 5 15 10 15 6 0 10 11 10 25 0 26 15 34
22 13 3 -8 10 -3 18 11 11 21 10 26 -4 36 -9 7 -16 26 -16 44 0 30 2 31 43 33
23 0 54 0 70 -1 15 -1 27 3 27 8 0 6 -8 11 -17 11 -14 0 -13 4 6 23 12 13 33
30 48 38 14 8 39 26 54 40 29 27 43 33 139 64 30 9 69 23 85 30 17 8 57 26 90
41 33 15 83 28 110 30 28 1 84 8 125 14 111 17 429 15 520 -4 99 -20 161 -35
174 -44 6 -3 22 -8 36 -9 31 -4 101 -33 118 -50 7 -7 23 -13 34 -13 30 0 178
-72 178 -86 0 -7 13 -15 29 -19 16 -3 41 -17 56 -31 14 -13 39 -31 55 -39 20
-10 28 -21 25 -35 -2 -11 3 -27 12 -36 15 -15 18 -15 28 0 14 19 41 21 48 4 3
-8 6 -6 6 5 1 14 11 17 56 17 31 0 72 7 92 15 19 8 53 15 74 15 21 0 48 4 61
9 13 5 43 12 68 15 68 10 74 11 86 18 6 4 33 10 60 14 27 3 54 11 61 16 7 5
17 7 23 3 6 -4 16 -2 23 3 7 5 38 12 70 15 32 3 77 15 100 25 23 11 65 23 92
27 28 4 57 11 66 15 8 5 44 13 80 19 169 27 403 77 430 92 9 4 35 11 57 14 22
2 60 11 84 19 41 14 74 21 213 47 33 6 65 15 70 20 6 4 42 13 80 19 38 6 83
17 100 25 42 19 57 23 79 24 17 1 18 -6 12 -116z m-737 41 c33 -42 27 -51 -50
-68 -117 -26 -120 -23 -57 47 49 54 77 59 107 21z m711 -328 c0 -123 -122
-607 -156 -620 -34 -13 -758 -6 -854 8 -52 8 -144 17 -205 21 -60 4 -132 11
-160 17 -27 5 -61 12 -75 14 -14 2 -81 13 -150 24 -69 11 -176 27 -239 35
-115 15 -156 23 -148 31 8 8 117 34 189 45 40 6 81 17 93 24 11 8 76 25 145
40 69 14 157 34 195 44 39 11 113 29 165 41 52 12 118 33 145 46 28 12 118 39
200 58 83 20 164 40 180 45 17 5 62 15 100 21 39 7 81 18 95 25 29 14 331 80
473 104 4 0 7 -10 7 -23z m-5606 -37 c4 6 12 11 18 11 6 0 5 -7 -3 -17 -13
-15 -12 -16 9 -11 19 5 21 4 12 -7 -8 -10 -7 -16 7 -24 12 -7 13 -10 4 -11 -7
0 -11 -6 -7 -15 3 -9 0 -15 -9 -15 -9 0 -12 -6 -9 -15 7 -17 -11 -21 -22 -4
-4 8 -9 7 -15 -2 -7 -12 -9 -12 -9 0 0 11 -3 11 -17 0 -15 -12 -16 -12 -10 4
9 23 -2 47 -22 47 -14 1 -14 2 2 11 9 6 15 14 12 19 -3 5 4 11 15 15 11 3 20
12 20 18 0 8 3 7 9 -2 6 -9 11 -10 15 -2z m1374 -20 c-6 -18 -18 -40 -27 -50
-9 -10 -27 -33 -41 -49 -33 -41 -76 -63 -107 -55 -16 4 -22 2 -18 -5 4 -6 -13
-10 -47 -10 -30 0 -58 -4 -63 -9 -15 -15 -193 -29 -441 -37 l-222 -7 -6 29
c-16 79 -36 208 -32 211 2 3 31 -1 63 -9 103 -23 795 -15 865 11 11 4 35 8 53
9 l34 3 -11 -32z m-118 -241 c-1 -25 -45 -90 -70 -103 -39 -20 -482 -101 -671
-122 -40 -5 -48 -2 -53 13 -18 60 -46 170 -46 180 0 9 44 10 168 7 150 -5 339
5 522 26 107 13 150 12 150 -1z m-60 -167 c0 -18 -30 -141 -41 -169 -23 -55
-26 -65 -99 -255 -11 -27 -25 -59 -33 -71 -8 -12 -18 -36 -21 -53 -4 -17 -13
-36 -20 -42 -11 -9 -28 -43 -72 -148 -8 -17 -14 -43 -14 -57 0 -36 -13 -32
-45 14 -15 22 -31 40 -35 40 -7 0 -61 86 -113 180 -17 30 -41 69 -54 86 -12
17 -46 89 -73 160 -28 71 -57 143 -65 161 -13 29 -12 31 8 37 12 3 39 6 60 6
20 0 67 14 104 30 47 21 81 30 119 30 63 0 176 16 254 36 102 26 140 30 140
15z m2840 -125 l85 -12 -3 -134 c-2 -125 10 -379 24 -477 l6 -43 -46 0 -47 0
3 53 3 52 33 -3 c29 -2 32 1 32 24 l0 27 -106 -5 c-83 -4 -109 -2 -120 9 -8 8
-14 19 -14 24 0 21 -17 6 -30 -26 -8 -21 -17 -31 -21 -24 -5 8 -28 10 -77 5
-70 -7 -70 -7 -92 24 -32 45 -21 90 35 146 25 24 50 44 57 44 7 0 25 11 40 25
15 14 31 25 36 25 35 0 63 71 77 200 4 36 9 68 12 73 5 8 5 8 113 -7z m215
-30 c13 -10 36 -12 70 -9 27 3 119 -2 203 -11 84 -9 219 -16 301 -16 83 0 161
-4 174 -9 13 -5 29 -22 35 -38 38 -92 82 -345 82 -468 0 -56 -4 -68 -42 -126
-42 -62 -142 -169 -159 -169 -12 0 -11 27 1 35 23 14 8 33 -30 39 -57 9 -52
30 6 23 44 -5 45 -4 42 22 -3 23 -8 26 -38 26 -19 0 -53 -4 -75 -8 -39 -6 -43
-4 -92 42 -29 27 -67 54 -85 59 -18 6 -59 18 -90 27 -32 10 -58 21 -58 26 0 4
-9 10 -20 14 -11 3 -33 19 -49 36 -37 37 -76 38 -112 3 l-26 -25 -58 20 c-32
11 -59 22 -59 23 -9 15 -36 185 -36 226 0 55 18 238 25 260 6 16 67 15 90 -2z
m1169 -73 c-4 -16 -14 -41 -22 -58 l-16 -30 -7 30 c-4 17 -7 42 -8 58 -1 24 3
27 29 27 28 0 30 -2 24 -27z m-97 -28 c34 -87 20 -167 -41 -248 -14 -19 -26
-37 -26 -41 0 -4 -15 -31 -34 -59 -18 -29 -41 -65 -49 -82 -16 -29 -16 -28
-17 58 0 49 -4 97 -10 107 -5 10 -11 46 -12 79 -2 34 -6 61 -10 61 -4 0 -13
19 -19 43 -7 23 -18 49 -26 58 -13 16 -18 51 -7 62 3 3 58 5 121 4 l115 -2 15
-40z m146 10 c-3 -9 -8 -14 -10 -11 -3 3 -2 9 2 15 9 16 15 13 8 -4z m-2693
-145 c0 -23 -5 -31 -25 -36 -31 -8 -39 -2 -31 24 5 15 31 35 54 41 1 1 2 -12
2 -29z m60 11 c14 -28 13 -31 -15 -31 -20 0 -25 5 -25 25 0 30 25 34 40 6z m8
-83 c-9 -13 -22 -23 -29 -23 -8 0 -15 10 -17 23 -3 19 1 22 29 22 30 0 31 -1
17 -22z m-68 -13 c0 -29 -8 -31 -36 -10 -16 13 -17 16 -4 25 25 17 40 11 40
-15z m3045 -24 c17 -41 15 -58 -8 -68 -34 -15 -78 3 -73 30 3 12 5 26 5 30 1
9 37 24 57 24 7 0 16 -7 19 -16z m-3385 -17 c41 -8 95 -16 118 -19 50 -5 72
-19 72 -46 0 -15 7 -19 35 -19 30 0 35 -3 35 -22 0 -15 -11 -29 -31 -41 -26
-15 -30 -22 -25 -45 3 -15 15 -72 25 -127 11 -55 29 -136 40 -180 12 -44 21
-89 21 -99 0 -32 -16 -6 -30 49 -16 60 -46 131 -70 165 -10 14 -21 36 -25 49
-10 32 -44 60 -71 61 -30 0 -39 28 -17 52 17 19 15 22 -67 103 -87 86 -120
121 -120 130 0 8 29 5 110 -11z m-2017 -15 c22 -12 56 -49 57 -61 0 -4 -39 -4
-88 -1 -80 5 -92 3 -145 -21 -97 -44 -131 -30 -54 24 23 16 48 34 54 40 35 30
135 40 176 19z m197 -6 c0 -14 -15 -30 -37 -42 -39 -20 -47 -12 -18 19 27 28
55 40 55 23z m2177 -59 c-3 -3 -12 -4 -19 -1 -8 3 -5 6 6 6 11 1 17 -2 13 -5z
m-2732 -38 l50 -14 -54 -1 c-35 -1 -61 -7 -73 -17 -16 -16 -18 -16 -24 0 -17
45 15 56 101 32z m3584 -41 l0 -20 -9 20 c-5 11 -9 29 -9 40 l0 20 9 -20 c5
-11 9 -29 9 -40z m-2915 -57 c20 -38 35 -68 32 -68 -9 0 -83 114 -91 140 -6
22 -5 23 7 10 8 -8 32 -45 52 -82z m1654 81 c-2 -6 -8 -10 -13 -10 -5 0 -11 4
-13 10 -2 6 4 11 13 11 9 0 15 -5 13 -11z m-48 -24 c0 -8 -4 -15 -10 -15 -5 0
-10 7 -10 15 0 8 5 15 10 15 6 0 10 -7 10 -15z m610 -14 c12 -23 14 -118 3
-124 -5 -2 -24 -7 -44 -11 -44 -8 -47 -1 -56 91 l-6 63 46 0 c36 0 49 -5 57
-19z m1465 -11 c15 -24 -8 -31 -31 -9 -13 12 -21 26 -18 30 6 10 39 -5 49 -21z
m-2007 -2 c-5 -32 -28 -35 -28 -4 0 17 5 26 16 26 10 0 14 -7 12 -22z m1426
-40 c-4 -35 -8 -65 -10 -67 -2 -2 -24 -7 -49 -11 -36 -5 -46 -4 -49 9 -6 21
-17 83 -17 96 0 6 28 15 63 21 35 6 64 12 66 13 2 0 0 -27 -4 -61z m176 7 c0
-62 2 -61 -83 -69 -56 -6 -57 -6 -53 16 3 13 8 40 11 60 6 40 15 45 83 47 l42
1 0 -55z m-3912 33 c-5 -15 -68 -24 -68 -10 0 15 13 22 43 22 18 0 27 -4 25
-12z m2724 -64 c14 -69 14 -76 -1 -81 -9 -2 -30 -11 -48 -18 -22 -10 -34 -11
-39 -4 -12 19 -33 111 -28 122 5 14 73 56 90 57 6 0 18 -34 26 -76z m-459 46
c6 -23 -3 -32 -21 -21 -13 8 -6 41 8 41 4 0 10 -9 13 -20z m1323 -107 c-7 -7
-117 -25 -122 -20 -4 3 -7 30 -8 59 l-1 52 48 9 c26 5 47 14 48 21 0 6 9 -18
19 -54 10 -36 17 -66 16 -67z m583 118 c20 -13 -3 -67 -32 -75 -27 -7 -33 0
-41 47 -7 37 -7 37 26 37 18 0 39 -4 47 -9z m-3924 -11 c13 -21 -88 -40 -129
-24 -29 11 -5 24 34 18 21 -3 46 -1 56 5 24 13 31 14 39 1z m4035 -30 c11 -7
4 -10 -27 -10 -24 0 -43 5 -43 10 0 13 50 13 70 0z m-4290 -9 c0 -6 -10 -17
-22 -26 -28 -19 -40 1 -12 22 21 15 34 17 34 4z m3276 -137 c-3 -7 -20 -17
-38 -22 -40 -10 -46 0 -47 70 -1 45 1 49 32 61 l32 14 13 -55 c7 -31 11 -61 8
-68z m-3246 113 c0 -2 -9 -12 -20 -22 -24 -21 -27 -14 -4 9 15 15 24 20 24 13z
m2280 -1 c0 -3 -4 -8 -10 -11 -5 -3 -10 -1 -10 4 0 6 5 11 10 11 6 0 10 -2 10
-4z m70 -6 c0 -5 -4 -10 -10 -10 -5 0 -10 5 -10 10 0 6 5 10 10 10 6 0 10 -4
10 -10z m1910 -10 c-19 -13 -30 -13 -30 0 0 6 10 10 23 10 18 0 19 -2 7 -10z
m-1950 -9 c0 -13 -28 -22 -35 -11 -3 4 1 11 7 13 20 8 28 8 28 -2z m2087 -4
c4 -8 27 -26 50 -42 43 -28 49 -51 10 -39 -23 7 -97 72 -97 86 0 13 28 9 37
-5z m-1546 -128 c3 -41 4 -79 2 -85 -7 -20 -54 -24 -60 -5 -2 9 -8 23 -13 32
-5 9 -11 37 -15 62 -6 40 -5 48 11 53 11 3 26 9 34 14 28 16 35 4 41 -71z
m-396 9 l27 -31 -24 -13 c-33 -19 -37 -18 -55 22 -15 31 -15 36 -3 44 22 14
26 13 55 -22z m283 -36 c21 -96 15 -112 -44 -112 -16 0 -25 7 -28 23 -3 12
-10 46 -17 75 -6 29 -10 54 -8 56 12 8 75 22 80 17 3 -3 11 -30 17 -59z m2772
26 c27 -44 25 -52 -5 -23 -13 14 -31 25 -40 25 -8 0 -15 7 -15 15 0 28 40 16
60 -17z m-3126 -73 c-4 -8 -14 -20 -24 -25 -14 -8 -20 -2 -34 33 -16 41 -16
42 6 60 22 18 22 18 40 -17 10 -19 15 -42 12 -51z m-344 65 c0 -5 -7 -10 -15
-10 -8 0 -15 5 -15 10 0 6 7 10 15 10 8 0 15 -4 15 -10z m-46 -15 c3 -9 -1
-18 -10 -22 -19 -7 -26 0 -18 21 8 20 20 21 28 1z m1892 -12 c-3 -16 -8 -48
-12 -72 -5 -38 -8 -42 -18 -29 -15 20 -39 8 -30 -15 3 -9 13 -17 20 -17 11 0
12 -4 5 -19 -6 -10 -9 -41 -8 -69 1 -28 -3 -56 -8 -61 -7 -7 -9 5 -7 34 4 48
2 51 -30 34 -31 -17 -34 -2 -5 29 22 23 25 32 18 57 -7 25 -13 30 -37 28 -28
-1 -28 -1 -6 9 12 6 22 20 22 32 1 19 2 19 11 4 18 -32 46 -22 52 18 5 32 22
64 34 64 3 0 2 -12 -1 -27z m358 11 c30 -11 16 -20 -25 -16 -22 3 -46 -1 -52
-7 -6 -6 -16 -11 -21 -11 -6 1 0 10 13 20 23 20 56 25 85 14z m-3262 -185 c99
-99 195 -187 213 -194 18 -8 56 -35 86 -60 29 -25 58 -45 64 -45 5 0 28 -16
50 -35 43 -37 129 -82 235 -122 36 -13 79 -32 95 -42 33 -19 274 -103 435
-151 159 -48 163 -50 90 -44 -150 12 -211 26 -365 83 -187 69 -254 97 -275
116 -8 7 -55 35 -105 60 -49 26 -108 60 -130 76 -22 16 -73 53 -114 82 -175
125 -518 457 -471 457 6 0 93 -81 192 -181z m1070 135 c-9 -15 -10 -15 -17 6
-5 15 -3 25 6 31 17 11 24 -13 11 -37z m2599 -17 c9 -34 19 -69 23 -77 4 -11
-11 -34 -50 -73 -50 -52 -131 -113 -139 -105 -2 2 3 35 11 73 7 39 13 105 14
148 l0 77 33 1 c17 0 41 4 52 9 35 15 40 11 56 -53z m829 48 c7 -8 8 -15 2
-15 -5 0 -15 7 -22 15 -7 8 -8 15 -2 15 5 0 15 -7 22 -15z m-1482 -7 c16 -16
15 -70 -2 -93 -13 -18 -14 -15 -9 28 6 54 -10 68 -58 50 -40 -15 -37 -5 4 12
40 18 50 18 65 3z m339 -201 c28 -30 91 -4 78 32 -5 11 -3 12 10 1 52 -43 -45
-95 -103 -54 -24 17 -29 68 -14 174 7 52 7 50 10 -40 2 -71 7 -99 19 -113z
m-2319 170 c2 -10 -3 -17 -11 -17 -16 0 -30 24 -19 34 10 10 27 1 30 -17z
m494 -31 c14 -37 16 -52 7 -62 -18 -22 -32 -16 -56 22 -28 42 -29 69 -5 83 26
15 33 10 54 -43z m2948 29 c0 -3 -9 -5 -20 -5 -11 0 -20 7 -20 15 0 13 4 14
20 5 11 -6 20 -13 20 -15z m-1221 -25 c16 0 33 -5 37 -11 5 -9 -3 -10 -29 -5
-40 8 -52 -3 -43 -40 5 -20 13 -24 41 -24 33 0 35 -2 35 -34 0 -36 -28 -67
-60 -65 -9 0 -7 3 6 9 20 8 38 55 27 72 -2 5 -15 8 -29 8 -19 0 -28 8 -36 31
-8 23 -15 29 -30 26 -16 -5 -15 -1 6 18 14 13 26 32 27 42 0 14 2 13 9 -4 7
-17 18 -23 39 -23z m1412 13 c56 -30 79 -64 79 -115 0 -35 -12 -30 -34 14 -6
12 -42 44 -79 69 -36 25 -64 49 -60 53 13 12 44 5 94 -21z m-3556 -33 c-3 -5
-11 -10 -16 -10 -6 0 -7 5 -4 10 3 6 11 10 16 10 6 0 7 -4 4 -10z m332 -34
c23 -46 21 -56 -8 -56 -23 0 -62 73 -46 89 20 20 33 12 54 -33z m1223 23 c0
-5 -4 -9 -10 -9 -5 0 -10 7 -10 16 0 8 5 12 10 9 6 -3 10 -10 10 -16z m316 -6
c-7 -7 -26 7 -26 19 0 6 6 6 15 -2 9 -7 13 -15 11 -17z m-561 7 c3 -5 24 -10
46 -10 21 0 39 -4 39 -10 0 -5 -18 -10 -40 -10 -22 0 -57 -7 -77 -15 -42 -18
-57 -11 -24 11 17 13 20 19 10 30 -9 11 -7 14 14 14 14 0 29 -4 32 -10z m209
-22 c16 -2 31 -9 34 -16 3 -11 0 -12 -18 -2 -12 6 -33 9 -47 5 -24 -6 -24 -8
-21 -90 2 -56 0 -81 -7 -74 -5 6 -10 42 -9 80 0 54 -2 69 -13 65 -7 -3 -13 -1
-13 5 0 5 7 12 15 15 8 3 17 15 21 26 5 17 7 17 17 4 7 -8 25 -16 41 -18z
m-1554 13 c0 -12 -20 -25 -27 -18 -7 7 6 27 18 27 5 0 9 -4 9 -9z m1901 -33
c64 3 86 -13 96 -71 4 -29 1 -40 -20 -61 -39 -39 -75 -44 -101 -14 -11 14 -29
28 -38 31 -10 4 -18 11 -18 17 0 13 23 13 36 0 12 -12 64 6 64 22 0 4 5 8 10
8 6 0 10 -11 10 -25 0 -26 -15 -34 -23 -12 -3 9 -10 7 -23 -6 -17 -15 -17 -19
-4 -27 61 -39 125 66 70 115 -17 16 -27 17 -64 8 -56 -12 -75 -3 -68 34 l6 28
6 -25 c6 -23 10 -25 61 -22z m1627 -33 c-10 -10 -58 37 -58 56 0 16 6 13 31
-16 18 -20 29 -38 27 -40z m-3468 56 c0 -12 -20 -25 -27 -18 -7 7 6 27 18 27
5 0 9 -4 9 -9z m-55 -31 c-3 -5 -11 -10 -16 -10 -6 0 -7 5 -4 10 3 6 11 10 16
10 6 0 7 -4 4 -10z m1085 -11 c43 1 70 -9 70 -25 0 -13 -3 -14 -15 -4 -8 7
-31 10 -52 8 -47 -6 -102 10 -81 23 7 5 22 6 33 3 11 -3 31 -6 45 -5z m330 -4
c10 -12 10 -21 2 -38 -10 -21 -11 -21 -11 6 -1 24 -5 27 -38 28 -34 1 -35 2
-13 9 38 12 46 11 60 -5z m-1286 -11 c7 -18 -10 -44 -28 -44 -17 0 -37 48 -22
54 23 10 44 5 50 -10z m1979 -13 c-3 -10 1 -29 7 -41 10 -18 9 -21 -2 -18 -15
5 -24 78 -10 78 6 0 8 -9 5 -19z m-796 -3 c-2 -7 0 -23 4 -35 6 -17 5 -23 -6
-23 -10 0 -15 11 -15 35 0 19 5 35 11 35 6 0 9 -6 6 -12z m573 -15 c0 -19 -3
-24 -10 -17 -6 6 -8 18 -4 27 9 24 14 21 14 -10z m-1839 -10 c12 -31 -9 -60
-35 -50 -21 8 -20 32 2 56 22 25 21 25 33 -6z m866 -25 c-2 -13 -4 -5 -4 17
-1 22 1 32 4 23 2 -10 2 -28 0 -40z m2867 36 c9 -24 5 -25 -44 -10 -45 13 -40
24 11 25 16 1 29 -6 33 -15z m-2600 -27 l25 -24 -36 -30 c-32 -28 -38 -30 -66
-21 l-30 11 23 19 c17 14 20 22 12 30 -9 9 -16 7 -30 -5 -10 -9 -23 -17 -28
-17 -18 0 44 48 67 53 13 2 27 5 31 6 4 0 18 -9 32 -22z m-200 -3 c5 -14 -9
-54 -19 -54 -3 0 -5 16 -5 35 0 36 13 47 24 19z m53 -8 c-3 -7 -1 -33 5 -57 5
-24 11 -57 14 -73 2 -16 8 -34 14 -40 23 -23 8 -28 -17 -4 -16 14 -40 33 -55
43 -35 22 -36 35 -2 35 23 0 25 3 19 29 -7 33 3 81 17 81 6 0 8 -6 5 -14z
m2704 -6 c13 -10 21 -19 17 -20 -14 0 -58 23 -58 32 0 14 16 9 41 -12z m-5351
-53 c1 -57 0 -58 54 19 28 40 32 12 6 -42 -22 -44 -20 -74 3 -44 14 18 75 45
83 37 12 -11 -17 -45 -53 -63 l-38 -19 40 -3 c82 -6 85 -22 7 -32 -46 -6 -47
-7 -19 -18 15 -6 27 -17 27 -23 0 -7 8 -18 18 -26 15 -13 15 -13 -4 -4 -12 6
-24 7 -28 4 -3 -3 -15 2 -26 12 -30 27 -34 12 -11 -34 12 -22 21 -48 21 -57 0
-15 -4 -14 -25 6 -13 13 -27 31 -31 42 -8 26 -22 22 -17 -5 6 -28 -14 -80 -27
-72 -5 3 -10 26 -10 51 0 24 -4 44 -10 44 -5 0 -10 -4 -10 -10 0 -16 -63 -75
-67 -63 -2 6 5 30 17 53 27 52 22 67 -12 41 -14 -12 -34 -21 -44 -21 -14 0 -9
9 21 40 38 39 38 40 14 40 -14 0 -34 7 -45 15 -18 13 -16 14 24 15 44 0 56 14
22 25 -19 6 -64 55 -57 62 7 6 58 -16 74 -33 26 -25 27 -8 4 47 -12 28 -20 53
-18 55 3 3 23 -16 46 -42 l41 -47 0 41 c0 22 3 47 6 56 11 30 24 5 24 -47z
m1782 38 c13 -30 -1 -52 -27 -42 -22 9 -29 35 -15 52 18 21 29 19 42 -10z
m1428 -45 c23 0 30 4 30 20 0 11 5 20 10 20 14 0 13 -33 -2 -48 -13 -13 -57
-16 -74 -4 -16 10 -34 48 -34 69 1 11 8 4 21 -19 16 -31 25 -38 49 -38z m-703
35 c6 -14 7 -27 3 -30 -11 -7 -40 23 -40 41 0 23 24 16 37 -11z m2123 8 c0 10
5 17 10 17 6 0 10 -7 10 -17 0 -14 2 -14 21 3 20 18 20 18 14 -8 -6 -24 -5
-26 17 -21 19 5 21 3 11 -8 -19 -19 -16 -29 10 -30 21 -1 19 -2 -22 -15 -11
-4 -10 -9 5 -26 19 -21 19 -21 -4 -15 -22 5 -23 3 -17 -21 6 -26 6 -26 -14 -8
-19 17 -21 17 -21 3 0 -10 -4 -17 -10 -17 -5 0 -10 7 -10 17 0 14 -2 14 -20
-2 -22 -20 -26 -14 -10 15 10 18 8 19 -22 14 l-33 -6 25 21 c19 15 22 21 10
25 -42 13 -44 14 -22 15 27 1 28 9 5 28 -16 13 -15 14 15 9 30 -5 32 -4 22 14
-16 29 -12 35 10 15 18 -16 20 -16 20 -2z m-1610 -74 c0 -21 -4 -40 -9 -44 -6
-3 -9 11 -9 32 1 21 -2 49 -6 63 -7 24 -6 24 8 6 9 -11 16 -37 16 -57z m54 19
c-8 -13 -20 1 -28 32 l-7 25 20 -24 c12 -12 18 -28 15 -33z m-1359 20 c14 -21
14 -24 -2 -35 -26 -20 -49 -15 -61 12 -9 20 -8 26 6 34 26 16 39 13 57 -11z
m645 -8 c30 -30 24 -43 -10 -19 -16 12 -43 22 -60 21 -17 0 -28 4 -25 9 11 17
74 10 95 -11z m224 -2 c-18 -32 -39 -48 -65 -48 -30 0 -52 20 -22 20 10 1 34
9 53 20 42 23 43 23 34 8z m-362 -10 c-7 -7 -12 -36 -12 -66 0 -33 -4 -51 -10
-47 -23 14 -4 125 22 125 9 0 9 -3 0 -12z m635 -14 c8 -22 -8 -66 -27 -72 -12
-4 -13 -2 -2 9 6 7 12 23 12 36 0 30 -38 40 -78 19 -42 -21 -47 -33 -28 -61
17 -26 9 -34 -12 -13 -17 17 -15 53 6 70 33 30 119 38 129 12z m88 -52 c-9 -9
-25 11 -25 32 0 37 14 40 22 4 3 -18 5 -34 3 -36z m-631 41 c3 -4 -10 -15 -30
-25 -44 -21 -55 -16 -29 12 18 20 46 26 59 13z m-174 -8 c0 -2 -9 -19 -20 -37
-26 -43 -26 -85 0 -93 14 -4 20 -15 20 -35 0 -16 3 -37 7 -47 6 -16 5 -16 -10
-4 -10 8 -17 28 -17 46 0 24 -5 34 -20 38 -27 7 -27 59 1 103 18 29 39 45 39
29z m415 -114 c3 -6 2 -11 -4 -11 -15 0 -31 35 -31 68 0 48 15 47 22 -2 3 -25
9 -50 13 -55z m-157 46 c30 -23 2 -105 -43 -125 -33 -15 -78 -15 -93 0 -7 7
-12 29 -12 49 0 31 6 42 33 62 47 36 81 40 115 14z m-408 -34 c0 -5 -14 -9
-32 -9 -17 -1 -37 -9 -44 -18 -8 -11 -13 -13 -16 -5 -6 18 -59 -13 -97 -56
-34 -39 -41 -31 -13 17 22 39 102 78 160 78 23 0 42 -3 42 -7z m47 -95 c37
-34 23 -55 -14 -23 -10 8 -26 20 -36 28 -17 12 -17 13 5 14 12 1 33 -7 45 -19z
m1653 3 c-13 -11 -67 -39 -120 -62 -52 -23 -128 -58 -169 -77 -55 -25 -79 -32
-90 -25 -21 13 -74 124 -64 133 4 4 105 15 223 25 118 9 217 19 219 21 2 2 9
4 15 4 6 0 0 -9 -14 -19z m-1830 -45 c-6 -20 -10 -51 -9 -68 2 -18 -1 -35 -6
-38 -18 -9 -18 100 0 127 22 33 30 23 15 -21z m380 18 c0 -14 -22 -45 -40 -54
-14 -7 -26 -8 -38 -1 -15 9 -15 10 5 11 12 0 30 11 40 25 17 23 33 32 33 19z
m-272 -71 c21 -71 23 -81 14 -87 -6 -3 -13 16 -17 42 -4 26 -11 55 -16 65 -5
9 -6 17 -1 17 5 0 14 -17 20 -37z m1707 -8 c-35 -29 -114 -67 -200 -96 -33
-12 -87 -33 -120 -49 -102 -47 -195 -72 -470 -124 -148 -28 -330 -39 -544 -33
-191 6 -424 31 -506 56 l-30 9 29 1 c16 1 57 -3 90 -9 34 -5 105 -17 160 -25
108 -18 243 -21 293 -6 17 5 98 12 180 16 198 8 495 42 626 71 45 11 71 22 77
35 7 12 41 27 98 44 122 36 246 83 295 111 54 30 59 30 22 -1z m-125 -12 c-1
-18 -18 -35 -24 -24 -4 6 -4 16 -1 21 7 12 25 13 25 3z m1615 -30 c4 -16 10
-61 14 -101 l6 -74 39 61 c21 34 52 71 69 83 l30 21 -7 -39 c-4 -21 -19 -65
-35 -96 -15 -32 -27 -58 -25 -58 1 0 25 12 52 26 27 14 69 28 92 31 40 6 42 5
32 -14 -14 -26 -34 -42 -98 -78 l-53 -30 69 -1 c48 0 79 -6 104 -19 20 -11 36
-23 36 -26 0 -11 -50 -22 -129 -28 l-74 -6 62 -34 c65 -37 118 -101 83 -101
-42 1 -94 20 -131 49 -21 17 -42 31 -45 31 -3 0 7 -27 24 -60 17 -33 33 -82
37 -108 l6 -47 -37 40 c-20 22 -51 60 -69 84 l-32 43 -6 -78 c-7 -81 -15 -114
-29 -114 -14 0 -22 34 -27 123 l-6 88 -20 -40 c-11 -22 -43 -62 -70 -88 l-49
-48 6 41 c7 50 53 154 68 154 6 0 8 3 5 7 -4 3 -31 -10 -60 -30 -35 -24 -70
-39 -102 -44 l-49 -6 24 33 c13 18 49 49 81 70 l58 37 -71 7 c-82 7 -118 15
-118 25 0 19 75 41 138 41 l67 0 -45 27 c-56 32 -130 91 -130 103 0 15 73 -2
132 -31 67 -34 77 -36 54 -10 -19 21 -56 121 -56 151 0 19 5 17 45 -17 24 -21
55 -58 67 -83 l23 -45 6 80 c9 118 28 159 44 98z m-2531 -172 c-9 -9 -362 -14
-414 -5 l-45 7 35 16 c19 9 46 24 60 33 14 9 43 21 65 26 22 6 67 19 100 31
33 11 87 29 120 39 l60 19 13 -80 c7 -44 10 -83 6 -86z m-2034 2 l5 -55 34 49
c39 55 53 45 22 -16 -12 -22 -21 -43 -21 -46 0 -3 18 4 41 15 63 32 83 21 26
-15 -26 -17 -47 -33 -47 -37 0 -5 15 -8 33 -8 41 0 77 -10 77 -21 0 -5 -12 -9
-27 -9 -16 0 -38 -3 -51 -6 -21 -6 -20 -8 20 -38 47 -34 33 -49 -21 -22 -43
22 -54 21 -40 -5 17 -33 29 -79 19 -79 -4 0 -21 21 -37 48 l-28 47 -3 -50 c-1
-27 -5 -56 -8 -64 -9 -27 -29 8 -30 54 -1 54 -12 54 -39 1 -25 -49 -49 -61
-39 -20 4 16 16 43 27 61 10 18 17 33 15 33 -2 0 -21 -9 -43 -20 -49 -25 -73
-27 -54 -4 7 8 25 22 41 30 32 16 37 34 11 35 -14 0 -13 2 5 9 30 12 28 20
-10 52 -38 30 -31 48 9 27 16 -7 32 -15 37 -18 5 -2 0 13 -12 33 -21 36 -28
66 -16 66 9 0 33 -31 46 -60 10 -23 11 -23 15 -5 10 54 26 105 32 100 3 -4 8
-31 11 -62z m3270 -83 c1 -39 3 -42 13 -26 7 11 23 31 37 45 21 23 25 24 28 8
2 -9 -6 -33 -18 -53 -12 -19 -20 -37 -17 -40 3 -3 28 6 56 20 28 15 51 22 51
17 0 -11 -58 -61 -71 -61 -5 0 -9 -4 -9 -10 0 -5 15 -10 34 -10 19 0 42 -3 51
-6 27 -11 -3 -24 -55 -24 l-45 -1 32 -17 c33 -18 69 -59 60 -68 -7 -7 -73 22
-81 35 -4 6 -11 11 -17 11 -16 0 -10 -23 12 -46 12 -13 19 -31 17 -46 -4 -22
-5 -21 -41 16 l-37 40 0 -35 c0 -35 -14 -67 -22 -53 -3 5 -8 26 -12 46 l-7 37
-34 -37 c-43 -48 -54 -36 -20 22 29 49 22 58 -25 31 -14 -8 -34 -14 -45 -14
-16 0 -12 7 22 39 l42 40 -42 0 c-47 0 -83 15 -57 24 8 2 33 7 54 11 l39 6
-29 18 c-67 41 -70 80 -4 42 22 -12 45 -21 50 -19 5 2 0 22 -12 45 -12 24 -18
46 -14 50 12 12 40 -11 58 -48 10 -19 18 -32 19 -29 0 3 2 25 5 49 2 24 7 48
10 53 11 18 24 -15 24 -62z"/>
<path d="M3605 5034 c-76 -17 -183 -50 -197 -62 -22 -19 -8 -55 40 -99 45 -42
95 -44 151 -7 42 27 66 84 59 140 -3 29 -15 36 -53 28z"/>
<path d="M2720 4497 c0 -13 -8 -35 -19 -48 -33 -43 -51 -190 -30 -242 26 -65
58 -96 105 -103 59 -9 93 7 125 59 33 54 40 72 49 127 4 25 9 51 11 59 2 8
-16 26 -46 43 -27 16 -61 40 -75 52 -14 13 -46 35 -72 50 l-48 27 0 -24z"/>
<path d="M4028 4457 c-41 -29 -105 -53 -173 -67 -101 -21 -105 -25 -105 -93 0
-127 75 -251 167 -276 50 -14 67 -14 107 3 44 18 74 44 93 81 21 39 20 149 -1
200 -9 21 -14 45 -12 51 3 7 -11 22 -30 33 -38 23 -41 36 -18 69 19 28 15 28
-28 -1z"/>
<path d="M3282 4043 c35 -6 50 -25 42 -57 -9 -36 -60 -36 -98 -1 -27 25 -27
25 -24 3 8 -59 122 -62 141 -4 8 25 7 32 -13 48 -12 10 -34 17 -49 17 l-26 -2
27 -4z"/>
<path d="M4504 3912 c-6 -4 -27 -32 -47 -63 -72 -109 -246 -239 -349 -261 -35
-7 -58 -17 -58 -25 0 -10 20 -11 88 -7 90 7 170 -7 176 -29 34 -115 41 -183
41 -371 0 -184 1 -195 13 -145 19 80 9 331 -17 433 -12 43 -21 85 -21 92 0 11
23 14 110 14 109 0 110 0 127 -27 35 -58 81 -70 121 -33 33 31 31 102 -4 129
-33 26 -48 26 -91 0 -38 -24 -89 -22 -158 4 -54 20 -55 39 -3 71 59 36 149
107 162 129 9 15 6 22 -14 38 -14 11 -34 28 -46 39 -11 10 -25 15 -30 12z"/>
<path d="M3400 3821 c0 -9 24 -21 42 -21 6 0 6 6 -2 15 -14 16 -40 20 -40 6z"/>
<path d="M2814 3810 c3 -8 9 -23 12 -32 4 -10 10 -18 15 -18 14 0 11 10 -12
38 -12 15 -19 20 -15 12z"/>
<path d="M2859 3728 c16 -44 20 -132 8 -168 -13 -37 -30 -42 -89 -25 -47 12
-32 -11 27 -44 73 -41 88 -72 90 -188 1 -51 5 -96 8 -100 9 -8 180 -30 196
-25 6 2 11 13 11 25 -1 21 -1 21 -15 4 -13 -18 -16 -18 -87 -1 -40 9 -79 22
-87 28 -21 16 -6 100 24 132 14 15 25 33 25 40 0 7 8 17 18 22 15 8 189 52
206 52 14 0 4 -30 -39 -118 -25 -50 -45 -99 -45 -107 0 -28 16 -16 29 23 8 20
26 64 41 97 15 33 30 68 33 77 18 53 103 64 214 28 102 -34 129 -53 148 -108
9 -26 21 -55 27 -66 8 -15 5 -23 -16 -40 -58 -46 -41 -137 27 -150 45 -8 63
-1 77 35 11 25 18 29 54 29 l41 0 -50 26 c-104 55 -145 122 -147 239 0 41 4
81 10 87 5 7 13 23 16 36 9 29 -17 30 -41 2 -10 -11 -21 -16 -27 -11 -12 9
-21 12 -151 46 -102 27 -255 48 -363 51 -40 0 -75 4 -78 7 -3 3 34 8 83 12 48
3 97 7 108 8 11 2 -36 8 -105 15 -93 10 -132 18 -152 33 -35 25 -39 24 -29 -3z
m381 -128 c105 -11 160 -24 258 -63 42 -17 52 -25 52 -44 0 -13 -2 -23 -4 -23
-2 0 -35 12 -72 26 -99 38 -121 44 -199 60 -126 25 -219 36 -292 32 -52 -2
-73 0 -73 8 0 7 6 15 13 18 15 7 178 0 317 -14z m-210 -57 c-1 -11 -71 -63
-84 -63 -20 0 -69 46 -62 58 8 13 146 17 146 5z"/>
<path d="M3770 3690 c-51 -11 -90 -28 -90 -40 0 -5 16 -1 35 10 49 28 156 27
221 0 51 -22 64 -22 37 2 -40 35 -121 46 -203 28z"/>
<path d="M3248 3663 c7 -3 16 -2 19 1 4 3 -2 6 -13 5 -11 0 -14 -3 -6 -6z"/>
<path d="M3337 3649 c6 -6 31 -15 55 -19 23 -5 52 -12 63 -16 14 -5 17 -4 10
3 -9 10 -111 43 -131 43 -4 0 -3 -5 3 -11z"/>
<path d="M4270 3351 c-55 -27 -100 -55 -100 -64 0 -5 3 -7 8 -5 79 37 139 74
131 81 -2 2 -20 -3 -39 -12z"/>
<path d="M3966 3087 c3 -10 9 -15 12 -12 3 3 0 11 -7 18 -10 9 -11 8 -5 -6z"/>
<path d="M4222 3080 c13 -20 28 -27 28 -12 0 10 -22 32 -32 32 -5 0 -3 -9 4
-20z"/>
<path d="M2360 2769 c0 -5 5 -7 10 -4 6 3 10 8 10 11 0 2 -4 4 -10 4 -5 0 -10
-5 -10 -11z"/>
<path d="M2475 2760 c-3 -6 1 -7 9 -4 18 7 21 14 7 14 -6 0 -13 -4 -16 -10z"/>
<path d="M3340 2579 c0 -5 5 -7 10 -4 6 3 10 8 10 11 0 2 -4 4 -10 4 -5 0 -10
-5 -10 -11z"/>
<path d="M3370 2580 c0 -5 5 -10 10 -10 6 0 10 5 10 10 0 6 -4 10 -10 10 -5 0
-10 -4 -10 -10z"/>
<path d="M3255 2410 c-4 -6 9 -10 31 -10 42 0 42 4 2 14 -15 3 -30 2 -33 -4z"/>
<path d="M3252 2258 c3 -7 13 -15 24 -17 16 -3 17 -1 5 13 -16 19 -34 21 -29
4z"/>
<path d="M4080 2194 c-12 -32 -13 -112 -1 -98 9 10 24 124 16 124 -3 0 -10
-12 -15 -26z"/>
<path d="M3220 2165 c-10 -12 -10 -15 3 -15 19 0 31 16 18 24 -5 3 -14 -1 -21
-9z"/>
<path d="M3380 2170 c0 -5 5 -10 10 -10 6 0 10 5 10 10 0 6 -4 10 -10 10 -5 0
-10 -4 -10 -10z"/>
<path d="M3220 2119 c0 -5 5 -7 10 -4 6 3 10 8 10 11 0 2 -4 4 -10 4 -5 0 -10
-5 -10 -11z"/>
<path d="M1595 2065 c-49 -6 -103 -16 -118 -23 -16 -7 -32 -12 -36 -12 -20 0
-41 -40 -41 -76 0 -61 37 -84 132 -84 125 0 178 28 207 110 7 19 18 45 23 57
22 46 -1 50 -167 28z"/>
<path d="M1820 1892 c-19 -11 -34 -21 -33 -23 1 -2 -2 -20 -6 -40 -8 -33 -6
-38 16 -48 39 -18 156 -9 153 12 -1 4 5 18 13 31 14 21 13 25 -6 49 -30 37
-89 45 -137 19z"/>
<path d="M3860 1895 c-18 -21 -3 -32 16 -13 10 9 12 18 6 22 -5 3 -15 -1 -22
-9z"/>
<path d="M4510 2135 c0 -14 14 -73 30 -132 17 -58 30 -130 30 -159 0 -63 7
-84 28 -84 13 0 14 11 9 76 -7 77 -33 207 -47 234 -4 9 -11 30 -14 47 -9 40
-36 53 -36 18z"/>
<path d="M4774 1723 c-3 -16 -7 -34 -10 -40 -2 -7 5 -13 15 -13 13 0 20 10 25
31 10 51 -19 72 -30 22z"/>
<path d="M4955 1610 c3 -5 8 -10 11 -10 2 0 4 5 4 10 0 6 -5 10 -11 10 -5 0
-7 -4 -4 -10z"/>
<path d="M3530 1120 c0 -13 11 -13 30 0 12 8 11 10 -7 10 -13 0 -23 -4 -23
-10z"/>
<path d="M3545 1090 c-3 -5 -1 -10 4 -10 6 0 11 5 11 10 0 6 -2 10 -4 10 -3 0
-8 -4 -11 -10z"/>
<path d="M3087 922 c-24 -15 -27 -22 -24 -57 2 -22 9 -40 15 -39 7 1 21 2 32
3 28 2 70 51 70 83 0 25 -4 28 -32 28 -18 0 -45 -8 -61 -18z"/>
</g>
</svg>
